P2
# 8-bit pgm - grayscale
50 50
255
  0   0   0   0   0   0   0   0   0   0   0   0   0   0   0   0   0   0   0   0   0   0   0   0
  0   0   0   0   0   0   0   0   0   0   0   0   0   0   0   0   0   0   0   0   0   0   0   0
  0   0
  0   0   0   0   0   0   0   0   0   0   0   0   0   0   0   0   0   0   0   0   0   0   0   0
  0   0   0   0   0   0   0   0   0   0   0   0   0   0   0   0   0   0   0   0   0   0   0   0
  0   0
  0   0   0   0   0   0   0   0   0   0   0   0   0   0   0   0   0   0   0   0   0   0   0   0
  0   0   0   0   0   0   0   0   0   0   0   0   0   0   0   0   0   0   0   0   0   0   0   0
  0   0
  0   0   0   0   0   0   0   0   0   0   0   0   0   0   0   0   0   0   0   0   0   0   0   0
  0   0   0   0   0   0   0   0   0   0   0   0   0   0   0   0   0   0   0   0   0   0   0   0
  0   0
  0   0   0   0   0   0   0   0   0   0   0   0   0   0   0   0   0   0   0   0   0   0   0   0
  0   0   0   0   0   0   0   0   0   0   0   0   0   0   0   0   0   0   0   0   0   0   0   0
  0   0
  0   0   0   0   0   0   0   0   0   0   0   0   0   0   0   0   0   0   0   0   0   0   0   0
  0   0   0   0   0   0   0   0   0   0   0   0   0   0   0   0   0   0   0   0   0   0   0   0
  0   0
  0   0   0   0   0   0   0   0   0   0   0   0   0   0   0   0   0   2   3   2   2   2   2   2
  3   1   0   0   0   0   0   0   0   0   0   0   0   0   0   0   0   0   0   0   0   0   0   0
  0   0
  0   0   0   0   0   0   0   0   0   0   0   0   0   0   3   5   5   5   5   5   5   5   6   5
  6   5   5   5   4   2   1   0   0   0   0   0   0   0   0   0   0   0   0   0   0   0   0   0
  0   0
  0   0   0   0   0   0   0   0   0   0   0   0   3   5   5   5   5   5   5   5   5   5   5   5
  6   5   5   5   5   6   5   5   4   2   0   0   0   0   0   0   0   0   0   0   0   0   0   0
  0   0
  0   0   0   0   0   0   0   0   0   0   1   5   5   5   5   5   5   5   5   5   5   7   7   7
 16  11   7   6   5   5   5   5   5   5   5   3   0   0   0   0   0   0   0   0   0   0   0   0
  0   0
  0   0   0   0   0   0   0   0   0   1   5   5   5   5   5   5   5   5   6   9  10  10  11  21
  0   0  16   9   8   5   5   5   5   5   5   5   5   2   0   0   0   0   0   0   0   0   0   0
  0   0
  0   0   0   0   0   0   0   0   1   5   5   5   5   5   5   5   5   8  10  10  10  13  18   0
128  76   0  16  10  10   7   5   5   5   5   5   5   5   3   0   0   0   0   0   0   0   0   0
  0   0
  0   0   0   0   0   0   0   0   5   5   5   5   5   5   5   7  10  10  10  11  13  11  39  45
148 135   0  27  10  10  10   8   5   5   5   5   5   5   5   4   0   0   0   0   0   0   0   0
  0   0
  0   0   0   0   0   0   0   3   5   5   5   5   5   5   8  10  10   9  11   6  23  32   0 119
168  77   0  29  22   7  11  10   9   5   5   5   5   5   5   5   4   0   0   0   0   0   0   0
  0   0
  0   0   0   0   0   0   1   5   5   5   5   5   8  10  11  10  12  12  14  16   0   0   0 206
255 138  20   7   0  19   8  10  10  10   6   5   5   5   5   5   5   4   0   0   0   0   0   0
  0   0
  0   0   0   0   0   0   4   5   5   5   5  12  33  25  21  16  14  26   0 106 112 132 129 194
250 189  93  87 100   0  21  10   9  10  10   6   5   5   5   5   5   6   2   0   0   0   0   0
  0   0
  0   0   0   0   0   1   5   5   5   6  15   0   0   0   0  25  17  37   0 157 225 134 128 127
214 182  87 209 117   0  28  13  12  11  10  10   7   4   5   5   5   5   5   1   0   0   0   0
  0   0
  0   0   0   0   0   3   5   5   9  14   0  57 183 124  83   0  25  10 105  92 138  92  85  94
193 152 101 182 104  24  18  16  15  16  14  13  12   8   5   5   5   5   5   4   0   0   0   0
  0   0
  0   0   0   0   0   5   4  10  16  21   0   0 225 175 139 140   0  76 140 113  78 102  84  89
 59  78  88  53 172  80   0  26  19  29  19  24  15   5  10   5   5   5   5   5   1   0   0   0
  0   0
  0   0   0   0   0   4  10   0   0   0  61 134  88 130 106 122   0 146 113 199 199 185  61  98
 94  81 105 157 154  65   0   0  13   0   2   0  31  33   7  10   7   5   5   5   4   0   0   0
  0   0
  0   0   0   0   1   7   0  47  76   0 111 141  84  71  96  81  91 150 189 214 192 201 140  68
 85  78  85 158 127   0  61  55  83 158  46 129 139   0  15  14  10   6   5   5   5   0   0   0
  0   0
  0   0   0   0   3   9   0  24 161  79 125 193 171 124  70  46 152 203 239 242 217 151 211 203
 84  74  72  46  47  11  63 162 126 177  33 199 207  13  43  10  11  10   6   5   5   1   0   0
  0   0
  0   0   0   0   3  17   0 117 159  72 197 253 206 116  68 109 153 237 255 255 251 173 209 192
 54  79  70  76   0  90 165 133 122  89  75 140 156 171  96   0  28  25   7   7   5   3   0   0
  0   0
  0   0   0   0  10  12  18 203 211  87 224 255 192 179  18 155 176 241 255 254 253 202 175 155
 54  82  73   0 142 157 157 193 179 166 108  80 105 123  47   0   0   0  26   6   5   4   0   0
  0   0
  0   0   0   0   4  16   0 124 124 111 157 191 112  81  69 147 184 250 255 255 248 189 184 111
 75  71 101 155 183 176 204 229 203 186 162 106  86 122  41  62 104 130   0  29   9   4   0   0
  0   0
  0   0   0   0   2   5  18   0  85 161  85 104  59  91  61 177 181 220 245 246 223 170 213 164
 53  84  76 204 187 212 253 255 255 210 190 121  62   0 123 137 118 140  20   3   0   5   0   0
  0   0
  0   0   0   0   3   6   7  22  42  69  35   0  92 120  80  87 171 182 203 195 138 196 106  78
 75  81  78 158 167 232 255 254 255 210 159  95 106 161 193 234 143 121 199 125   0  13   2   0
  0   0
  0   0   0   0   0   5   5  12   0   0  33   0 142 134 124  78 112 131 167 165 167  86  69  61
 75  72  95 206 172 234 255 254 255 203 160 101  99 185 235 255 140 141 217 103   0  15   1   0
  0   0
  0   0   0   0   0   5   5   6  12  16  30   0 135 145 215  95 107 128 129 140  81   9  45  67
 78  57 149 241 167 196 255 255 243 191 101  64  76 165 217 211  82 132 103   0  17   5   0   0
  0   0
  0   0   0   0   0   3   5   4   6  10   6  32   0  92 219  82 147 172 100 126   0  52 105  82
 76  75 110 170 182 178 208 222 199 160  93  76  83 119 142 157  28 120 128   0  25   4   0   0
  0   0
  0   0   0   0   0   2   5   5   5   6  11  13  18  64  76  29  62  82   0   0   0  91 178 151
 63  91  84  53 163 210 219 186 146 107  31 110  93  70 105 140   0   0   0  22   2   3   0   0
  0   0
  0   0   0   0   0   0   5   5   5   5   6   8  12   8  12  19   0   0  31  43   0 151 138  95
 84  74  84  86 112 153 162 119 139  57  75 159 109 188 113  69   0  29  26   4   6   3   0   0
  0   0
  0   0   0   0   0   0   3   5   5   5   5   5   8  14  19  15  19  21  14  30   0 127 136 103
 94 130 111  77  82  77  34 139  96   0  32 127 118 224 179   0  41   8   9   5   5   1   0   0
  0   0
  0   0   0   0   0   0   0   5   5   5   5   5   5   7  10  11  12  14  15  14  40   0 187 179
 98 215 176  75 107 163 192   0  44  26  16   0  41  68  60   0  13   9   5   5   5   0   0   0
  0   0
  0   0   0   0   0   0   0   2   5   5   5   5   5   5   7  10  10  10  10  16  15  27 171 106
145 213 208 119 159 157 195  58   0  21  15  24   3   0   0  14   6   5   5   5   3   0   0   0
  0   0
  0   0   0   0   0   0   0   0   3   5   5   5   5   5   5   6  10  10  10  11   1  39  11  55
104 236 254 154  53  64   1  43   5  15  13  13  14  18  13   4   5   5   5   5   0   0   0   0
  0   0
  0   0   0   0   0   0   0   0   0   4   5   5   5   5   5   5   6   9  10  10  12   1  18  28
  0 179 225  65   0   8  25   5  12  10  10  10   9   6   5   5   5   5   5   3   0   0   0   0
  0   0
  0   0   0   0   0   0   0   0   0   0   4   5   5   5   5   5   5   5   9  11  10  11  19   0
 56 135  98  66   5  23  17  12   9  10  10   8   5   5   5   5   5   5   4   0   0   0   0   0
  0   0
  0   0   0   0   0   0   0   0   0   0   0   4   6   5   5   5   5   5   5   7  10  10  13  16
  0 171 104   0  18  13  10  10  11   9   6   4   5   5   5   5   5   5   1   0   0   0   0   0
  0   0
  0   0   0   0   0   0   0   0   0   0   0   0   2   5   5   5   5   5   5   4   6   9  10  16
  0  32  42   0  14  10  11  10   8   5   5   5   5   5   5   5   5   1   0   0   0   0   0   0
  0   0
  0   0   0   0   0   0   0   0   0   0   0   0   0   1   4   5   5   5   5   5   5   5   6   7
 15  11   0  13   9   9   7   5   5   5   5   5   5   5   5   5   1   0   0   0   0   0   0   0
  0   0
  0   0   0   0   0   0   0   0   0   0   0   0   0   0   0   1   4   5   5   5   5   5   5   5
  4  11   8   5   5   5   5   5   5   5   5   5   5   5   4   1   0   0   0   0   0   0   0   0
  0   0
  0   0   0   0   0   0   0   0   0   0   0   0   0   0   0   0   0   0   2   3   5   5   5   5
  5   5   5   5   5   5   5   5   5   5   5   5   4   1   0   0   0   0   0   0   0   0   0   0
  0   0
  0   0   0   0   0   0   0   0   0   0   0   0   0   0   0   0   0   0   0   0   0   0   2   3
  3   5   5   5   5   5   5   5   5   4   2   1   0   0   0   0   0   0   0   0   0   0   0   0
  0   0
  0   0   0   0   0   0   0   0   0   0   0   0   0   0   0   0   0   0   0   0   0   0   0   0
  0   0   0   0   0   0   0   0   0   0   0   0   0   0   0   0   0   0   0   0   0   0   0   0
  0   0
  0   0   0   0   0   0   0   0   0   0   0   0   0   0   0   0   0   0   0   0   0   0   0   0
  0   0   0   0   0   0   0   0   0   0   0   0   0   0   0   0   0   0   0   0   0   0   0   0
  0   0
  0   0   0   0   0   0   0   0   0   0   0   0   0   0   0   0   0   0   0   0   0   0   0   0
  0   0   0   0   0   0   0   0   0   0   0   0   0   0   0   0   0   0   0   0   0   0   0   0
  0   0
  0   0   0   0   0   0   0   0   0   0   0   0   0   0   0   0   0   0   0   0   0   0   0   0
  0   0   0   0   0   0   0   0   0   0   0   0   0   0   0   0   0   0   0   0   0   0   0   0
  0   0
  0   0   0   0   0   0   0   0   0   0   0   0   0   0   0   0   0   0   0   0   0   0   0   0
  0   0   0   0   0   0   0   0   0   0   0   0   0   0   0   0   0   0   0   0   0   0   0   0
  0   0
  0   0   0   0   0   0   0   0   0   0   0   0   0   0   0   0   0   0   0   0   0   0   0   0
  0   0   0   0   0   0   0   0   0   0   0   0   0   0   0   0   0   0   0   0   0   0   0   0
  0   0
